<!-- Generated by IcoMoon.io -->
<svg version="1.1" xmlns="http://www.w3.org/2000/svg" width="57" height="32" viewBox="0 0 57 32">
<path d="M26.727 3.165h-0.073c-0.112-0.007-0.224-0.010-0.336-0.012h-0.243c-0.212 0-0.428 0.005-0.642 0.016-0.007-0.001-0.016-0.001-0.024-0.001s-0.017 0-0.025 0.001l0.001-0c-1.944 0.11-3.848 0.596-5.609 1.431l-0.231 0.111v11.809l0.54-0.183c0.474-0.163 0.978-0.309 1.5-0.445 1.29-0.345 2.775-0.553 4.305-0.574l0.013-0v1.551c-0.193 0.001-0.38 0.007-0.568 0.016h-0.045c-1.121 0.061-2.233 0.232-3.322 0.51-1.378 0.345-2.708 0.863-3.957 1.542v-15.145c1.298-0.757 2.695-1.325 4.151-1.688 1.173-0.315 2.52-0.499 3.909-0.504h0.231c0.273 0.007 0.538 0.019 0.788 0.038 0.719 0.052 1.384 0.162 2.028 0.328l-0.078-0.017v1.527c-0.544-0.133-1.189-0.235-1.85-0.283l-0.039-0.002-0.039-0.003c-0.132-0.011-0.263-0.022-0.386-0.022zM29.415 4.726c0.339 0.026 0.689 0.038 1.044 0.038 1.464-0.006 2.881-0.198 4.231-0.554l-0.117 0.026c1.378-0.346 2.706-0.865 3.956-1.543v14.875c-1.298 0.756-2.696 1.325-4.153 1.688-1.173 0.314-2.52 0.497-3.909 0.503h-0.004c-0.029 0-0.062 0-0.096 0-1.020 0-2.010-0.128-2.955-0.368l0.083 0.018v-14.971c0.229 0.053 0.465 0.102 0.706 0.142 0.394 0.066 0.81 0.115 1.214 0.145zM36.985 4.841l-0.54 0.182c-0.497 0.167-0.997 0.316-1.5 0.449-1.344 0.36-2.888 0.569-4.48 0.575h-0.004c-0.352 0-0.676-0.010-0.989-0.030l-0.43-0.028v12.148l0.37 0.033c0.343 0.030 0.696 0.045 1.052 0.045 1.191-0.005 2.377-0.159 3.531-0.457 1.058-0.269 1.977-0.608 2.847-1.030l-0.088 0.039 0.231-0.111v-11.813z"></path>
<path d="M19.060 24.113c-0.076-0.079-0.167-0.141-0.269-0.184l-0.005-0.002c-0.088-0.037-0.19-0.058-0.297-0.058-0.010 0-0.020 0-0.030 0.001l0.001-0c-0.004-0-0.008-0-0.012-0-0.121 0-0.236 0.024-0.341 0.067l0.006-0.002c-0.105 0.043-0.195 0.103-0.27 0.178v0c-0.076 0.077-0.135 0.17-0.174 0.271-0.039 0.096-0.062 0.208-0.062 0.325 0 0.004 0 0.007 0 0.011v-0.001 2.023c-0.005 0.143 0.022 0.284 0.080 0.415 0.048 0.104 0.117 0.196 0.202 0.271 0.081 0.068 0.176 0.117 0.278 0.144 0.098 0.028 0.2 0.042 0.302 0.042 0.113 0.001 0.224-0.023 0.326-0.070 0.101-0.044 0.193-0.108 0.27-0.187 0.075-0.079 0.135-0.171 0.177-0.271 0.043-0.102 0.065-0.212 0.065-0.323v-0.226h-0.529v0.18c0 0.004 0 0.008 0 0.012 0 0.061-0.011 0.118-0.032 0.171l0.001-0.003c-0.018 0.045-0.044 0.083-0.077 0.114l-0 0c-0.031 0.025-0.068 0.045-0.108 0.058l-0.002 0.001c-0.033 0.011-0.071 0.018-0.11 0.019h-0c-0.009 0.001-0.020 0.002-0.031 0.002-0.039 0-0.076-0.008-0.109-0.023l0.002 0.001c-0.045-0.020-0.081-0.050-0.109-0.087l-0.001-0.001c-0.044-0.071-0.071-0.158-0.071-0.25 0-0.007 0-0.015 0-0.022l-0 0.001v-1.887c-0-0.006-0-0.013-0-0.020 0-0.103 0.024-0.2 0.067-0.286l-0.002 0.004c0.028-0.043 0.066-0.076 0.11-0.098l0.002-0.001c0.034-0.016 0.073-0.026 0.114-0.026 0.011 0 0.023 0.001 0.034 0.002l-0.001-0c0.003-0 0.006-0 0.010-0 0.044 0 0.086 0.010 0.124 0.029l-0.002-0.001c0.042 0.021 0.077 0.050 0.104 0.085l0.001 0.001c0.059 0.078 0.090 0.173 0.088 0.271v0.175h0.524v-0.206c0-0.002 0-0.005 0-0.008 0-0.124-0.024-0.243-0.067-0.352l0.002 0.006c-0.041-0.111-0.101-0.205-0.177-0.285l0 0zM22.202 24.090c-0.169-0.142-0.381-0.221-0.602-0.222-0.108 0-0.215 0.020-0.316 0.057-0.103 0.037-0.198 0.093-0.279 0.165-0.086 0.078-0.155 0.172-0.203 0.278l-0.002 0.005c-0.053 0.124-0.079 0.257-0.077 0.392v1.941c-0.004 0.137 0.023 0.272 0.077 0.397 0.048 0.104 0.118 0.197 0.205 0.271 0.081 0.075 0.176 0.133 0.279 0.171 0.101 0.037 0.208 0.056 0.316 0.057 0.113-0 0.222-0.021 0.322-0.059l-0.006 0.002c0.11-0.041 0.205-0.099 0.287-0.172l-0.001 0.001c0.084-0.076 0.152-0.168 0.2-0.271 0.054-0.125 0.081-0.261 0.077-0.397v-1.941c0-0.005 0-0.012 0-0.018 0-0.135-0.028-0.264-0.079-0.38l0.002 0.006c-0.049-0.111-0.117-0.205-0.199-0.283l-0-0zM21.955 26.706c0.001 0.009 0.001 0.019 0.001 0.030 0 0.044-0.008 0.086-0.023 0.125l0.001-0.002c-0.019 0.050-0.048 0.093-0.084 0.128l-0 0c-0.067 0.056-0.154 0.091-0.249 0.091v0c-0.091 0-0.179-0.032-0.249-0.091-0.036-0.035-0.065-0.078-0.084-0.126l-0.001-0.002c-0.014-0.036-0.022-0.078-0.022-0.122 0-0.011 0-0.021 0.001-0.031l-0 0.001v-1.941c-0.001-0.009-0.001-0.019-0.001-0.030 0-0.044 0.008-0.086 0.023-0.125l-0.001 0.002c0.019-0.050 0.048-0.093 0.084-0.128l0-0c0.070-0.059 0.158-0.091 0.249-0.091 0.095 0 0.182 0.034 0.25 0.091l-0.001-0c0.036 0.035 0.065 0.078 0.084 0.126l0.001 0.002c0.014 0.036 0.022 0.079 0.022 0.123 0 0.011-0 0.021-0.001 0.031l0-0.001v1.941zM26.329 27.573v-3.674h-0.509l-0.668 1.945h-0.009l-0.673-1.945h-0.503v3.674h0.525v-2.235h0.009l0.514 1.58h0.262l0.518-1.58h0.009v2.235h0.525zM29.311 24.157c-0.081-0.091-0.183-0.16-0.297-0.201-0.108-0.036-0.232-0.057-0.36-0.057-0.007 0-0.014 0-0.021 0h-0.779v3.674h0.523v-1.435h0.27c0.163 0.007 0.326-0.027 0.472-0.1 0.119-0.066 0.218-0.163 0.287-0.281 0.061-0.098 0.101-0.206 0.12-0.32 0.021-0.138 0.030-0.278 0.028-0.418 0.001-0.018 0.001-0.039 0.001-0.061 0-0.165-0.019-0.325-0.055-0.478l0.003 0.014c-0.035-0.127-0.101-0.243-0.193-0.338zM29.041 25.277c-0.002 0.070-0.020 0.136-0.050 0.194l0.001-0.003c-0.030 0.056-0.077 0.102-0.135 0.129-0.078 0.035-0.162 0.050-0.247 0.046h-0.239v-1.249h0.27c0.007-0 0.016-0.001 0.025-0.001 0.077 0 0.149 0.017 0.215 0.048l-0.003-0.001c0.054 0.032 0.096 0.078 0.122 0.134l0.001 0.002c0.029 0.065 0.044 0.134 0.046 0.205v0.244c0 0.085 0.005 0.174 0 0.252h-0.005zM31.791 23.899h-0.429l-0.809 3.674h0.523l0.154-0.789h0.714l0.154 0.789h0.524l-0.83-3.674zM31.308 26.283l0.258-1.332h0.009l0.256 1.332h-0.524zM35.173 26.112h-0.009l-0.791-2.213h-0.503v3.674h0.523v-2.209h0.011l0.8 2.209h0.492v-3.674h-0.523v2.213zM38.372 23.899l-0.421 1.461h-0.011l-0.421-1.461h-0.554l0.719 2.121v1.553h0.524v-1.553l0.719-2.121h-0.554zM17.6 28.61h0.252v0.708h0.171v-0.708h0.251v-0.145h-0.675v0.145zM19.721 28.465l-0.331 0.853h0.182l0.070-0.194h0.34l0.073 0.194h0.186l-0.339-0.853h-0.182zM19.694 28.981l0.116-0.316 0.116 0.316h-0.232zM21.818 29.004h0.197v0.11c-0.055 0.044-0.125 0.071-0.202 0.072h-0c-0.004 0-0.008 0-0.012 0-0.032 0-0.062-0.007-0.090-0.020l0.001 0.001c-0.032-0.015-0.059-0.036-0.080-0.062l-0-0c-0.040-0.057-0.064-0.128-0.064-0.204 0-0.007 0-0.013 0.001-0.020l-0 0.001c0-0.19 0.082-0.285 0.246-0.285 0.005-0.001 0.012-0.001 0.018-0.001 0.039 0 0.075 0.012 0.104 0.033l-0.001-0c0.035 0.025 0.061 0.062 0.072 0.104l0.169-0.033c-0.036-0.167-0.156-0.251-0.362-0.251-0.11-0.003-0.216 0.036-0.298 0.11-0.042 0.041-0.075 0.092-0.096 0.148l-0.001 0.003c-0.017 0.044-0.026 0.094-0.026 0.146 0 0.011 0 0.022 0.001 0.033l-0-0.001c-0 0.006-0 0.013-0 0.020 0 0.115 0.041 0.22 0.11 0.301l-0.001-0.001c0.041 0.042 0.090 0.075 0.145 0.097l0.003 0.001c0.044 0.017 0.095 0.028 0.148 0.028 0.010 0 0.019-0 0.029-0.001l-0.001 0c0.134 0.004 0.263-0.045 0.362-0.136v-0.336h-0.37v0.144zM23.959 28.465h-0.173v0.853h0.598v-0.145h-0.425v-0.708zM25.769 28.465h-0.173v0.853h0.173v-0.853zM27.539 29.035l-0.349-0.57h-0.167v0.853h0.161v-0.557l0.343 0.557h0.171v-0.853h-0.158v0.57zM29.14 28.943h0.425v-0.145h-0.425v-0.187h0.457v-0.145h-0.63v0.853h0.648v-0.145h-0.475v-0.231zM33.020 28.802h-0.336v-0.336h-0.171v0.853h0.171v-0.373h0.336v0.373h0.171v-0.853h-0.171v0.336zM34.629 28.943h0.426v-0.145h-0.426v-0.187h0.459v-0.145h-0.63v0.853h0.646v-0.145h-0.475v-0.231zM36.812 28.943c0.148-0.023 0.224-0.102 0.224-0.237 0.001-0.007 0.001-0.016 0.001-0.024 0-0.030-0.006-0.058-0.018-0.084l0.001 0.001c-0.015-0.034-0.038-0.062-0.067-0.083l-0.001-0c-0.063-0.032-0.138-0.051-0.216-0.051-0.012 0-0.023 0-0.035 0.001l0.002-0h-0.362v0.853h0.171v-0.357h0.034c0.037-0.002 0.073 0.004 0.107 0.019 0.025 0.015 0.046 0.037 0.061 0.062l0.186 0.271h0.205l-0.104-0.167c-0.047-0.083-0.111-0.152-0.187-0.203l-0.002-0.001zM36.64 28.825h-0.127v-0.214h0.135c0.011-0.001 0.023-0.001 0.036-0.001 0.049 0 0.097 0.008 0.141 0.023l-0.003-0.001c0.012 0.011 0.022 0.024 0.029 0.039l0 0.001c0.007 0.015 0.009 0.032 0.009 0.049s-0.006 0.034-0.013 0.048l0-0.001c-0.008 0.015-0.019 0.027-0.032 0.037l-0 0c-0.043 0.014-0.092 0.021-0.143 0.021-0.011 0-0.022-0-0.033-0.001l0.001 0zM38.458 28.943h0.425v-0.145h-0.425v-0.187h0.459v-0.145h-0.631v0.853h0.648v-0.145h-0.475v-0.231z"></path>
</svg>
